<svg id="Layer_1" data-name="Layer 1" xmlns="http://www.w3.org/2000/svg" width="1525.63" height="688.218" viewBox="0 0 1525.63 688.218"><defs><style>.cls-1{fill:#e5bc79;}</style></defs><title>RC Logo</title><path class="cls-1" d="M1762.815,707.05V655.891h-51.151v34.057H1694.7V655.891H305.3v34.057H288.344V655.891H237.185V707.05h34.057v16.959H237.185v551.986h34.057v16.963H237.185v51.151h51.159v-34.057H305.3v34.057H1694.7v-34.057h16.963v34.057h51.151v-51.151h-34.057v-16.963h34.057V724.009h-34.057V707.05Zm-34.057-34.057h16.963v16.955h-16.963ZM271.242,1327.015H254.287v-16.963h16.955ZM254.287,689.948V672.993h16.955v16.955Zm1491.434,620.1v16.963h-16.963v-16.963Zm0-568.941V1258.9h-34.057v34.057h-34.056v34.057H322.4v-34.057H288.344V1258.9H254.287V741.111h34.057V707.05H322.4V672.993H1677.608V707.05h34.056v34.061Z" transform="translate(-237.185 -655.891)"/><path class="cls-1" d="M1400.769,1083.145c4.351,0,8.392-1.785,12.05-5.353,3.577-3.594,5.385-7.553,5.385-11.77,0-5.927-3.642-9.467-9.744-9.467-4.262,0-8.31,1.776-12.026,5.284-3.8,3.568-5.72,7.45-5.72,11.548C1390.714,1079.5,1394.47,1083.145,1400.769,1083.145Z" transform="translate(-237.185 -655.891)"/><path class="cls-1" d="M825.615,902.325c46.473-5.275,78.233-1.9,98.6,5.333,4.343-1.67,4.131-5.524,2.859-8.6a153.956,153.956,0,0,0-50.27-13.72c-16.385.468-16.319.277-19.139-3.259-.1-1.516.286-9.37.513-11.073,11.2-1.584,17.485-1.658,29.593-1.45,11.61-1.491,4.636-12.238-3.675-13.79-2.738.68-16.1-.151-23.416.5.057-1.927.359-9.475,2.379-12.987,18.528-.249,29.071-.864,40.86-2.518.359-14.56-21.966-9.919-27.042-12.2,1.564-14.3,11.9-41.707,22.406-50.568-5.744-13.236-8.783-12.771-16.222-19.619-19.537,4.306-40.534,9.158-60.064,13.464-3.56-1.3-2.012-1.785-2.664-3.813,7.993-6.054,14.454-13.424,22.072-16.149-1.231-8.457-2.265-13.183-4.115-21.644-6.322-3.112-8.489-2.041-13.492-.656.693,7.634-3.234,12.747-8.587,18.414-11.562,13.618-33.234,34.982-51.876,43.981-9.557,7.43-7.838,21.485,6.714,14.653,13.459-7.4,36.3-28.142,38.317-13.4-.619,12.861-1.1,27.136,6.747,33.446,7.21,5.789,52.267-8.783,40.037,3.76-18.609,1.78-36.477,3.695-55.086,8.641-.464-2,.171-4.714-1.874-4.767-19.685-.509-22.4,10.84-18.5,21.253.473,1.267,1.385.876,3.137.534,13.484-2.64,26.325-4.844,39.809-7.488,6.958-.831,6.722,7.928,5.654,10.283-1.181,2.6-23.692,4.814-29.192,5.634-5.875-3.655-12.32,1.123-11.757,4.1,2.322,12.184,7.129,8.351,32.346,6.18,4.2-.815,7.015-.725,7.251-.045,1.32,3.943,2.077,12.865-6.07,13.064a462.732,462.732,0,0,1-50.824,2.767c-2.925-2.151-5.15-3.781-8.075-5.932-19.3,5.227-17.24,12.947-7.308,22.83C775.662,909.352,787.151,904.99,825.615,902.325Zm9.215-89.464c-3.927.374-5.769-3.842-2.2-5.321,8.4-3.474,17.851-3.426,26.789-5.136,3.691-6.515,2.045-10.674-2.941-13.758-9.166,1.406-18.243,4.534-27.514,4.216-3.886-.13-4.131-4.673-.734-6.237,12.36-5.682,33.1-9.569,46.295-11.019,5.744.061-.074,5.153-2.64,11.57q-3.3,10-6.6,20C855.134,809.068,845.112,811.879,834.83,812.861Z" transform="translate(-237.185 -655.891)"/><path class="cls-1" d="M1089.76,889.044c9.915-5.463,27.155-13.8,42.244-14.661,1.867,9.414-.138,20.19-2.867,28.459,7.471,5.032,10.347,7.618,17.248,11.643,8.05-4.167,14.324-8.147,20.075-16.914-4.31-.574-11.463,2.237-13.8-1.417-3.812-5.944-.8-16.948-1.368-23.991,1.3-4.457,5.165-4.827,8.759-4.681,9.63-1.572,18.975-3.87,26.308-11.215-5.467-4.094-19.66-5.76-25.111-9.854-1.312-12.723,11.032-25.442,24.248-32.4-2.453-13.371-13.363-18.622-28.452-18.19-5.035-.575-7.039-7.724-4.016-11.749,9.557-2.44,19.154-5.467,27.571-10.205,3.756,1.308,15.358,3.422,17.158,8.613,12.621,36.33-10.868,109.193-31.375,121.464,23.4-.926,32.777-23.127,40.395-33.5,12.466,26.626,50.735,40.445,64.105,33.69-3.887-39.818-9.891-80.49-13.777-120.307,3.739-5.748,7.055-12.348,10.786-18.1-5.091-16.242-6.395-18.919-16.392-16.038-19.9,5.735-46.173,16.3-62.557,9.976q-4.315,6.471-8.62,12.939c-7.187-3.162-19.334-3.638-27.775-5.309,2.158-3.593,5.124-15.394,7.283-18.987-10.926-13.66-17.607-12.157-30.83-8.564,3.871,12.132,5.907,20.178,3.454,26.818-1.9,5.162-7.234,4.041-15.814,3.406-31.612-1.5-23.9,32.183.733,20.478,1.272.889,13.216-3.555,13.835-1.5,1.947,6.407-.79,4.151.367,10.188-1.866,2.156-5.875,5.386-7.748,7.541-10.674-4.852-18.976.485-22.13,7.748-7.764,17.888-1.441,23.273,12.458,30.684,3.447,1.837,13.973,2.966,17.9,6.31,1.785,1.52.669,3.218-.9,6.144-34.928,11.642-47.647,4.436-53.684,13.492C1070.5,878.816,1074.874,891.057,1089.76,889.044Zm156.9-119.765c-.684,5.879-.3,15.106-1.45,19.025-2.322,7.875-13.093,7.806-21.42,8.583-8.359.779-9.639-3.633-9.72-8.555-.041-2.912-.994-7.418-1.328-10.563C1220.682,774.51,1236.18,773.43,1246.657,769.279Zm-3.764,55.632c-6.209,2.314-22.186,3.561-25.868-.778-1.671-1.968-.1-5.765.2-8.779-.146-7.345,15.831-6.535,24.28-5.663C1249.6,810.535,1248.939,822.964,1242.893,824.911Zm-35.678,44.294c1.255-5.145,5-14.323,6.926-19.57,1.221-3.365.5-6.046,5.059-6.188,8.172-.257,19.09-.807,27.522-1.569,1.1,11.937,4.474,30.493,5.166,42.185-10.526-.628-31.873-5.439-40.673-12.034C1209.422,870.688,1206.979,870.183,1207.215,869.205Zm-50.71-59.95a47.878,47.878,0,0,1,3.242,13.99c-3.242-.509-6.477,1.328-9.72,3.5a22.851,22.851,0,0,0-3.984-11.243C1149.53,811.541,1153.017,810.49,1156.505,809.255Zm-29.5,27.4a47.53,47.53,0,0,1-3.235-13.993c3.235.509,6.47-1.324,9.713-3.5a22.95,22.95,0,0,0,3.983,11.244C1133.984,834.366,1130.5,835.422,1127.01,836.655Z" transform="translate(-237.185 -655.891)"/><path class="cls-1" d="M1644,1121.792c-2.493,0-3.927,2.172-4.342,2.807a245.747,245.747,0,0,1-26.692,32.24c-11.154,11.105-15.66,12.3-17.077,12.3-1.369,0-2.656,0-2.656-3.585,0-2.3,1.751-8.958,13.443-27.677l30.562-48.458-7.064,1.129a67.313,67.313,0,0,1-10.079.993,32.778,32.778,0,0,1-7.267-.952l-2.4-.551-2.86,5.223c-1.882-3.8-5.8-5.89-11.374-5.89-7.9,0-18.177,3.336-30.521,9.9-19.056,9.964-31.8,21.15-38.106,33.4-23.611,31.5-33.812,36.46-37.894,36.46-2.509,0-2.957-.705-2.957-2.693,0-1.389,1.327-6.522,13.622-24.194,9.769-14.03,14.519-24.353,14.519-31.556a22.158,22.158,0,0,0-5.336-15.016,17.37,17.37,0,0,0-13.648-6.309c-6.225,0-12.93,3.2-19.937,9.527a132.084,132.084,0,0,0-10.861,11.436,20.593,20.593,0,0,0,.163-2.5,19.59,19.59,0,0,0-4.334-12.755,14.215,14.215,0,0,0-11.293-5.706c-4.489,0-12.376,3.519-33.731,30.936l-1.491,1.9a5.95,5.95,0,0,0-2.452,2.493c-28.541,38.66-40.176,44.441-44.575,44.441-3.61,0-3.887-1.361-3.887-3.291,0-2.461,1.19-7.3,6.877-16.349l38.1-59.881-6.942.971a85.69,85.69,0,0,1-11.073.952,33,33,0,0,1-6.688-.908l-2.25-.493-20.213,32.863a6.385,6.385,0,0,0-1.312,1.621l-2.632,3.1-4.709,6.237c-22.87,30.606-32.647,35.177-36.436,35.177-2.819,0-3.267-.884-3.267-2.994,0-1.006,1.018-5.752,14.217-24.467,9.37-13.236,13.924-23.274,13.924-30.684a22.833,22.833,0,0,0-5.394-15.175c-7.723-8.873-18.983-9.077-32.948,2.542.317-.505.514-.815.594-.937q31.128-48.256,46.874-72.391l4.635-7.13-8.2,2.241a40.56,40.56,0,0,1-10.657,1.32,42.109,42.109,0,0,1-7.121-.79l-2.176-.391-24.132,39.251c-18.724,30.557-27.613,44.954-30.758,49.83-6.86,11.766-11.154,19.31-13.9,24.374l-25.648,44.387,6.714-1.067a56.724,56.724,0,0,1,8.416-.851,37.841,37.841,0,0,1,7.08.831l2.257.44,1.157-1.992c17.42-29.987,31.278-50.65,41.2-61.416,12.18-13.269,18.934-16.051,22.454-16.051,2.811,0,2.95.868,2.95,2.379-.057.977-1.491,5.919-17.42,28.3-8.148,11.509-12.108,20.789-12.108,28.358a21.013,21.013,0,0,0,5.468,14.719,18.746,18.746,0,0,0,14.241,6.017c8.027,0,18.138-7.08,31.239-22.031a18.059,18.059,0,0,0-.09,1.841,19.973,19.973,0,0,0,5.695,14.393,19.291,19.291,0,0,0,14.169,5.8c11.178,0,26.227-12.788,45.993-39.088l6.135-8.058a10.293,10.293,0,0,0,2.844-2.815c20.148-27.661,26.365-29.808,27.791-29.808.211,0,.35.016.4.008a3.443,3.443,0,0,1,.13,1.1c0,2.5-2.542,10.576-19.6,36.571l-27.465,41.658,6.982-.884a76.22,76.22,0,0,1,9.557-.566c.644,0,2.673.1,8.67.582l2.028.163,1.027-1.752c37.243-63.547,56.047-76.884,65.262-76.884,3.047,0,3.267,1.015,3.267,2.692,0,.885-.839,4.959-11.635,20.267-8.245,11.574-12.971,18.728-14.877,22.517a30.062,30.062,0,0,0-3.129,13.557,21.049,21.049,0,0,0,5.435,14.588,18.076,18.076,0,0,0,13.867,6.148c7.977,0,17.737-6.881,30.724-21.669,1.378-1.572,2.665-3.059,3.886-4.46.05,7.283,2.119,13.463,6.168,18.389a20.062,20.062,0,0,0,15.962,7.74c5.9,0,11.7-2.6,17.737-7.932a126.612,126.612,0,0,0,12.922-14.091c-.017.431-.024.859-.024,1.287a21.325,21.325,0,0,0,5.206,14.653,17.677,17.677,0,0,0,13.777,6.083c7.887,0,17.876-7.093,30.513-21.657,22.911-25.913,22.911-28.426,22.911-30.263A4.015,4.015,0,0,0,1644,1121.792Zm-64.251,15.44c-21.543,27.763-30.293,31.91-33.585,31.91-3.422,0-5.54-1.03-5.54-6.155,0-9.855,7.341-23.323,21.819-40.033,17.908-20.606,28.411-24.932,34.057-24.932,2.428,0,3.585.578,3.585,3.878C1600.083,1105.994,1596.547,1115.446,1579.747,1137.232Z" transform="translate(-237.185 -655.891)"/><path class="cls-1" d="M616.686,1169.439c-1.157,0-2.419.452-4.628,1.744a27.5,27.5,0,0,1-16.433,5.618,19.339,19.339,0,0,1-13.713-5.166,15.991,15.991,0,0,1-5.459-12.3c0-5.23,1.728-12.64,5.134-22.051,5.507-15.513,8.188-26.809,8.188-34.538a29.4,29.4,0,0,0-10.494-23.285c12.393-2.51,22.757-7.248,30.871-14.124,10.152-8.547,15.3-19.094,15.3-31.34,0-13.142-6.7-25.449-19.929-36.632,15.522-8.6,31-12.958,46.067-12.958,11.48,0,20.792,3.414,27.693,10.152,6.983,6.77,10.372,15.6,10.372,26.985a55.064,55.064,0,0,1-3.943,20.78,6.9,6.9,0,0,0-.489,2.347,4.547,4.547,0,0,0,4.783,4.725c3.723,0,5.467-4.208,7.235-11.5a76.107,76.107,0,0,0,2.2-17.24c0-13.448-4.5-24.516-13.371-32.9-8.791-8.257-20.5-12.441-34.79-12.441-17.257,0-35.263,5.373-53.554,15.97-20.279-12.238-45.423-18.439-74.754-18.439-39.483,0-76.049,11.57-108.681,34.387-32.981,23.078-49.708,49.126-49.708,77.43,0,14.369,4.595,26.044,13.648,34.714,9.019,8.628,21.077,13.007,35.857,13.007,22.194,0,44.9-9.911,67.486-29.458,22.7-19.7,34.212-39.625,34.212-59.232,0-11.985-5.076-26.272-29.258-26.272-18.813,0-37.365,7.471-55.142,22.2-17.95,14.857-27.043,30.492-27.043,46.477,0,6.881,1.923,12.756,5.7,17.424,3.951,5.02,8.929,7.565,14.787,7.565,5.688,0,6.127-3.389,6.127-4.428,0-.464-.162-4.522-5.817-4.522a8.28,8.28,0,0,1-6.193-2.766,9.2,9.2,0,0,1-2.7-6.746c0-13.106,8.327-27.527,24.736-42.857,16.507-15.427,32.044-23.244,46.172-23.244,13.15,0,19.269,5.642,19.269,17.765,0,16.527-10.526,33.972-31.295,51.864-20.906,18.006-41.34,27.135-60.724,27.135-11.578,0-20.776-2.937-27.351-8.738-6.591-5.764-9.786-13.411-9.786-23.359,0-20.271,12.679-42.425,37.691-65.84,30.7-28.709,67.308-43.264,108.795-43.264,27.335,0,48.755,5.337,63.771,15.871-9.109,6.6-19.66,16.344-32.1,29.637a398.347,398.347,0,0,0-36.3,44.515c-20.271,29.575-33.576,48.425-39.54,56.039a146.292,146.292,0,0,1-19.652,20.5c-17.256,15.048-36.762,22.682-57.978,22.682-11.749,0-21.616-2.505-29.323-7.443-5.508-3.544-8.873-7.638-10.176-12.424a12.041,12.041,0,0,0,6.713,1.731,13.125,13.125,0,0,0,10.062-4.546,15.423,15.423,0,0,0,3.919-10.556c0-8.306-4.546-13.072-12.482-13.072a17.117,17.117,0,0,0-13.4,6.468,22.146,22.146,0,0,0-5.378,14.858c0,9.993,5.01,18.385,14.885,24.944,9.477,6.257,21.437,9.43,35.549,9.43,16.881,0,36.313-5.076,57.774-15.093,18.2-8.66,32.525-18.5,42.579-29.225s21.241-28.338,33.218-52.32q1.76-3.525,3.528-6.917c1.841,4.171,9.549,4.807,17.794,4.807.677,0,2.436-.093,9.957-.774a10.969,10.969,0,0,1,3.739,8.261,37.474,37.474,0,0,1-2.534,11.892c-7.463,20.467-11.1,34.521-11.1,42.97,0,11.614,3.594,21.563,10.682,29.58a34.531,34.531,0,0,0,26.74,12.152c4.571,0,9.761-1.136,15.88-3.479,5.475-2.11,10.535-4.632,10.535-8.75A4.255,4.255,0,0,0,616.686,1169.439Zm-48.73-96.667a53.824,53.824,0,0,0-18.186-3.222,22.975,22.975,0,0,0-6.7.758c16.458-30.118,33.9-52.287,51.974-66.044,6.835,7.878,10.306,16.169,10.306,24.642a43.049,43.049,0,0,1-10.674,29.058A43.555,43.555,0,0,1,567.956,1072.772Z" transform="translate(-237.185 -655.891)"/><path class="cls-1" d="M995.247,1021.761a28.979,28.979,0,0,1-7.186-1.031l-2.371-.619-1.238,2.118c-12.27,20.976-27.351,45.663-46.1,75.475-6.127,9.745-11.293,18.043-15.423,24.777a6.918,6.918,0,0,0-2.038,2.118,245.416,245.416,0,0,1-26.7,32.24c-11.146,11.105-15.651,12.3-17.077,12.3-1.361,0-2.648,0-2.648-3.585,0-2.3,1.751-8.962,13.443-27.677l30.562-48.458-7.064,1.129a67.313,67.313,0,0,1-10.079.993,32.778,32.778,0,0,1-7.267-.952l-2.4-.551-2.86,5.227c-1.882-3.805-5.809-5.894-11.381-5.894-7.9,0-18.17,3.336-30.514,9.9q-24.039,12.576-34.619,27.644c-9.89,12.067-18.951,21.584-26.935,28.293a141.77,141.77,0,0,1-20.532,14.062c18.658-31.89,33.771-56.666,44.991-73.751l4.09-6.229-7.35,1.259a58.341,58.341,0,0,1-9.572.989,47.973,47.973,0,0,1-7.921-.545l-2.158-.371-15.089,24.613c-28.623,46.9-42.034,53.9-47.477,53.9-2.086,0-2.957-.46-2.957-3.291,0-1.549,1.189-6.983,12.189-24l33.649-52.365-7.055,1.056a76.9,76.9,0,0,1-10.421,1,44.556,44.556,0,0,1-7.455-.545l-2.151-.367-20.353,32.92a16.258,16.258,0,0,0-1.491,1.7A50.51,50.51,0,0,1,704.363,1139c-6.184,4.147-11.39,6.013-15.587,5.431,10.918-14.834,16.238-27.47,16.238-38.526,0-10.661-5.768-16.531-16.246-16.531-10.013,0-22.177,4.97-37.177,15.182-21.233,14.352-32,29.723-32,45.68a28.093,28.093,0,0,0,7.227,19.309,23.293,23.293,0,0,0,17.957,8.246c12.409,0,25.054-8.649,38.6-26.415a23.451,23.451,0,0,0,7.2,1.059c5.19,0,10.649-1.792,16.3-5.34a29.838,29.838,0,0,0-2.4,10.506,20.35,20.35,0,0,0,5.434,14.038,17.412,17.412,0,0,0,13.24,6.152c5.328,0,10.568-2.151,15.6-6.4l-7.366,12.54-1.36.769c-6.958,2.971-12.9,5.61-17.119,7.607-48.4,21.529-71.942,42.2-71.942,63.205a15.2,15.2,0,0,0,5.23,11.675,17.873,17.873,0,0,0,12.514,4.607c12.98,0,27.629-6.428,44.78-19.648,16.214-12.453,31.922-31.629,46.669-56.976l6.974-11.956c19.164-10.217,34.994-21.722,47.11-34.228-.041.794-.065,1.593-.065,2.395,0,7.4,2.069,13.68,6.175,18.675a20.064,20.064,0,0,0,15.962,7.74c5.89,0,11.7-2.6,17.729-7.932a125.139,125.139,0,0,0,12.93-14.091c-.017.436-.033.859-.033,1.287a21.345,21.345,0,0,0,5.215,14.658,17.69,17.69,0,0,0,13.778,6.078c7.886,0,17.875-7.093,30.512-21.657.5-.566.994-1.124,1.474-1.67q-.17,1.712-.171,3.434a20.657,20.657,0,0,0,4.987,14.1,16.7,16.7,0,0,0,13.069,5.793c10.42,0,24.662-12.422,44.811-39.088l6.364-8.356a6.573,6.573,0,0,0,2.306-4.476,4.03,4.03,0,0,0-2.958-3.964l-.856-.115a5.246,5.246,0,0,0-4.57,2.9c-28.534,38.672-39.761,44.453-43.908,44.453-1.336,0-2.493,0-2.493-3.291,0-1.826,1.312-7.105,10.086-21.934,6.56-11.154,29.372-47.834,73.989-118.926l5.059-8.066-8.929,3.312A27.309,27.309,0,0,1,995.247,1021.761Zm-315.539,98.365c-4.359,5.6-6.567,11.191-6.567,16.617a15.989,15.989,0,0,0,3.471,9.687c-11.6,14.874-22.219,22.411-31.572,22.411-4.848,0-6.73-1.891-6.73-6.742,0-10.714,6.437-24.3,19.131-40.4,12.515-15.909,22.943-23.971,31.018-23.971,5.548,0,7.813,2.457,7.813,8.474a24.648,24.648,0,0,1-.586,5.455,6.4,6.4,0,0,0-1.915-.293C688.939,1111.364,684.344,1114.228,679.708,1120.126Zm8.881,127.664c-9.883,10.385-19.832,15.648-29.56,15.648-8.319,0-9.467-3.67-9.467-7.634,0-10.955,11.618-29.543,66.965-55.884,2.68-1.259,5.125-2.408,7.276-3.431C709.984,1220.5,698.154,1237.741,688.589,1247.79Zm172.4-110.558c-21.543,27.763-30.293,31.91-33.585,31.91-3.422,0-5.54-1.03-5.54-6.155,0-9.855,7.341-23.327,21.819-40.033,17.908-20.61,28.41-24.932,34.057-24.932,2.428,0,3.585.578,3.585,3.878C881.32,1105.99,877.792,1115.442,860.984,1137.232Z" transform="translate(-237.185 -655.891)"/><path class="cls-1" d="M1263,1095.08c0-22.1-11.154-33.784-32.256-33.784-15.8,0-31.5,7.126-46.661,21.184-15.244,14.181-22.977,28.8-22.977,43.443,0,12.878,8.27,14.8,13.2,14.8,9.117,0,14.136-4.957,14.136-13.961,0-7.116-3.985-11.2-10.926-11.2a12.537,12.537,0,0,0-6.087,1.72c1.63-8.877,8.4-18.6,20.19-28.961,13.81-12.091,26.765-18.222,38.506-18.222,7.064,0,12.523,1.9,16.686,5.8,4.1,3.838,6.094,8.934,6.094,15.574,0,13.411-6.615,27.935-19.668,43.174-21.721,25.481-46.742,38.4-74.363,38.4-14.339,0-25.755-3.712-33.934-11.032s-12.14-17.089-12.14-29.865c0-18.748,7.577-38.554,22.511-58.9,1.679.106,3.553.159,5.589.159,19.644,0,42.466-3.87,67.854-11.5,23.848-7.17,43.3-15.766,57.855-25.568,5.476,8.454,8.246,16.793,8.246,24.839,0,6.64,2.746,8.033,5.043,8.033.921,0,5.508-.33,5.508-6.844,0-9.773-3.8-20.389-11.284-31.593,8.384-6.819,12.473-13.459,12.473-20.25,0-11.562-11.219-17.424-33.34-17.424a100.7,100.7,0,0,0-17.639,1.556c-34.521-21.3-69.2-32.1-103.075-32.1-24.679,0-45.651,5.288-62.329,15.717-17.183,10.7-25.892,24.329-25.892,40.5,0,26,21.3,43.418,63.33,51.8-10.51,16.3-15.831,32.509-15.831,48.23,0,17.738,6.47,32.843,19.237,44.9,12.677,12.038,28.557,18.141,47.2,18.141,26.292,0,50.523-9,72.017-26.736C1251.994,1137.228,1263,1117.03,1263,1095.08Zm-6.29-93.183c13.924,0,20.981,2.9,20.981,8.624,0,2.538-1.581,6.8-8.67,13.13a119.842,119.842,0,0,0-21.917-21.049A75.221,75.221,0,0,1,1256.711,1001.9Zm4.938,27.135c-14.307,9.476-33.454,17.705-57,24.488-22.48,6.477-43.395,10.107-62.3,10.812a181.067,181.067,0,0,1,39.182-34.961c17.248-11.525,35.043-19.8,52.894-24.6A110.329,110.329,0,0,1,1261.649,1029.032Zm-205.539-7.541c0-11.651,7.536-22.1,22.39-31.079,15.439-9.3,33.73-14.017,54.352-14.017a195.921,195.921,0,0,1,88.67,21.053c-47.777,11.7-84.287,33.641-108.656,65.295C1075.208,1056.168,1056.11,1042.292,1056.11,1021.491Z" transform="translate(-237.185 -655.891)"/></svg>